<svg width="148" height="148" viewBox="0 0 148 148" fill="none" xmlns="http://www.w3.org/2000/svg">
<g clip-path="url(#clip0_4870_27217)">
<path d="M74.7957 19.6955V27.0538H73.2043V19.6953C71.4798 20.4383 69.4383 20.3857 67.6872 19.3747C66.0001 18.4006 64.9487 16.7485 64.6784 14.9613C64.5932 14.3982 64.9077 13.8535 65.438 13.6457C67.1209 12.9862 69.0774 13.0707 70.7644 14.0447C72.3377 14.9531 73.3581 16.4511 73.7079 18.0985C73.7373 18.2373 73.8579 18.3398 73.9998 18.3397C74.1417 18.3397 74.2621 18.2372 74.2915 18.0985C74.6413 16.4511 75.6618 14.9531 77.235 14.0447C78.9221 13.0707 80.8785 12.9862 82.5615 13.6457C83.0917 13.8535 83.4062 14.3982 83.3211 14.9613C83.0507 16.7485 81.9993 18.4006 80.3123 19.3747C78.5613 20.3856 76.5201 20.4383 74.7957 19.6955Z" fill="#48BB78"/>
<path fill-rule="evenodd" clip-rule="evenodd" d="M74.7958 28.6451C75.6747 28.6451 76.3872 27.9326 76.3872 27.0537V21.7442C77.9698 21.9196 79.6222 21.6107 81.1081 20.7528C83.232 19.5265 84.555 17.4444 84.8947 15.1993C85.091 13.9014 84.3643 12.6428 83.1422 12.1639C81.028 11.3355 78.5634 11.4402 76.4394 12.6665C75.4442 13.241 74.6247 14.0038 73.9998 14.8831C73.3749 14.0038 72.5554 13.241 71.5602 12.6665C69.4363 11.4402 66.9716 11.3355 64.8575 12.1639C63.6353 12.6428 62.9086 13.9014 63.105 15.1993C63.4446 17.4444 64.7676 19.5265 66.8916 20.7528C68.3776 21.6108 70.0302 21.9197 71.613 21.7441V27.0537C71.613 27.9326 72.3255 28.6451 73.2044 28.6451H74.7958ZM76.3872 20.1407C75.8631 20.0674 75.3501 19.9271 74.8616 19.7233C74.8396 19.7141 74.8177 19.7048 74.7958 19.6954V27.0537H73.2044V19.6954C73.1823 19.7049 73.1602 19.7141 73.1381 19.7233C72.6497 19.927 72.1369 20.0673 71.613 20.1406C70.3021 20.324 68.9224 20.0877 67.6873 19.3746C66.0002 18.4006 64.9488 16.7485 64.6785 14.9613C64.5933 14.3982 64.9078 13.8534 65.4381 13.6456C67.121 12.9862 69.0775 13.0706 70.7645 14.0447C71.8034 14.6444 72.6012 15.5014 73.124 16.4886C73.2005 16.6331 73.2711 16.7803 73.3357 16.9298C73.4807 17.2655 73.5955 17.6131 73.6789 17.9683C73.683 17.9857 73.687 18.0031 73.6909 18.0206L73.7493 18.2C73.797 18.275 73.8756 18.3271 73.9657 18.3377C73.977 18.339 73.9884 18.3396 73.9999 18.3396C74.0117 18.3396 74.0233 18.3389 74.0347 18.3376C74.1243 18.3268 74.2024 18.2751 74.2499 18.2006C74.2694 18.1699 74.2838 18.1355 74.2917 18.0984C74.3009 18.055 74.3106 18.0116 74.3207 17.9683C74.4042 17.6131 74.519 17.2655 74.6639 16.9298C74.7285 16.7803 74.7991 16.6331 74.8756 16.4886C75.3984 15.5014 76.1963 14.6444 77.2351 14.0446C78.9222 13.0706 80.8786 12.9862 82.5616 13.6456C83.0918 13.8534 83.4063 14.3982 83.3212 14.9613C83.0508 16.7485 81.9994 18.4006 80.3124 19.3746C79.0774 20.0876 77.698 20.3239 76.3872 20.1407Z" fill="#38A169"/>
</g>
<path d="M34.0082 95.2235C33.9057 95.1498 33.8228 95.0892 33.7606 95.0434L33.6372 94.9514C30.745 92.7652 30.1726 88.6484 32.3588 85.7562C34.5416 82.8685 38.649 82.2935 41.5404 84.4676C41.5598 84.4819 41.6114 84.5199 41.6671 84.5598C41.7786 84.6399 41.9594 84.7675 42.2 84.9301C42.6839 85.257 43.3945 85.715 44.2581 86.2083C46.0565 87.2356 48.2015 88.2324 50.1902 88.6843C53.6741 89.4761 58.0376 89.8449 61.6001 89.3735C65.1943 88.8979 68.4934 91.4261 68.969 95.0202C69.4445 98.6144 66.9164 101.914 63.3223 102.389C57.8664 103.111 51.8974 102.536 47.2805 101.487C43.5004 100.628 40.0755 98.9391 37.7463 97.6086C36.546 96.923 35.5533 96.2841 34.8499 95.8089C34.4969 95.5703 34.2129 95.3705 34.0082 95.2235Z" fill="white"/>
<path fill-rule="evenodd" clip-rule="evenodd" d="M42.0156 83.8294C38.7738 81.3944 34.1707 82.0398 31.7241 85.2765C29.2729 88.5192 29.9146 93.135 33.1574 95.5862L33.2851 95.6814L33.2883 95.6838C33.3531 95.7316 33.4387 95.7942 33.5441 95.8698C33.7545 96.0209 34.0446 96.2251 34.4045 96.4683C35.1212 96.9525 36.1309 97.6024 37.3517 98.2996C39.7132 99.6485 43.2156 101.379 47.1042 102.263C51.7898 103.328 57.856 103.915 63.4267 103.178C67.4565 102.645 70.291 98.9457 69.7578 94.9159C69.2246 90.8861 65.5256 88.0515 61.4958 88.5847C58.048 89.0409 53.7818 88.6846 50.3666 87.9085C48.4867 87.4812 46.4193 86.5264 44.6528 85.5174C43.8096 85.0358 43.1161 84.5888 42.6455 84.2708C42.4117 84.1129 42.2372 83.9896 42.1313 83.9136C42.0819 83.8782 42.0354 83.844 42.0156 83.8294ZM41.0623 85.1037C38.5213 83.1931 34.9118 83.6984 32.9936 86.2361C31.073 88.777 31.5751 92.3935 34.1149 94.3151L34.233 94.4031L34.2345 94.4042C34.2939 94.4481 34.3736 94.5063 34.4724 94.5772C34.6715 94.7202 34.9492 94.9157 35.2954 95.1496C35.9855 95.6159 36.9611 96.2438 38.141 96.9178C40.4379 98.2297 43.7853 99.8766 47.4569 100.711C52.0052 101.745 57.8768 102.307 63.2179 101.6C66.3764 101.182 68.5981 98.2831 68.1802 95.1246C67.7623 91.9661 64.863 89.7445 61.7045 90.1624C58.0273 90.6489 53.5665 90.2677 50.0139 89.4603C47.9165 88.9836 45.6939 87.9448 43.8635 86.8993C42.9795 86.3944 42.2518 85.9254 41.7545 85.5895C41.5071 85.4223 41.3201 85.2903 41.203 85.2062C41.1435 85.1635 41.0889 85.1233 41.0682 85.108L41.0623 85.1037Z" fill="#E2E8F0"/>
<path fill-rule="evenodd" clip-rule="evenodd" d="M80.4279 91.2816C78.1069 94.0667 78.4832 98.2061 81.2684 100.527C86.4534 104.848 88.6576 108.508 89.3289 112.808C89.9479 116.774 89.2583 119.328 89.0683 119.835C87.7951 123.229 89.5148 127.013 92.9093 128.286C96.3039 129.56 100.088 127.84 101.361 124.445C102.365 121.769 103.26 116.925 102.301 110.783C100.985 102.352 96.4238 96.0664 89.6734 90.4411C86.8882 88.1201 82.7488 88.4964 80.4279 91.2816Z" fill="white"/>
<path fill-rule="evenodd" clip-rule="evenodd" d="M90.1827 89.8298C87.06 87.2275 82.4189 87.6494 79.8166 90.7722C77.2143 93.8949 77.6362 98.536 80.759 101.138C85.8484 105.38 87.9104 108.881 88.5427 112.931C89.1412 116.764 88.4639 119.18 88.3233 119.555C86.8957 123.361 88.8239 127.604 92.6299 129.031C96.4359 130.459 100.679 128.531 102.106 124.725C103.159 121.917 104.066 116.934 103.087 110.661C101.732 101.979 97.0277 95.5339 90.1827 89.8298ZM81.0391 91.791C83.0788 89.3434 86.7164 89.0127 89.164 91.0523C95.82 96.599 100.238 102.726 101.515 110.906C102.453 116.916 101.571 121.621 100.616 124.166C99.4972 127.149 96.1719 128.66 93.1888 127.541C90.2057 126.422 88.6944 123.097 89.8133 120.114C90.0526 119.476 90.7547 116.783 90.1151 112.686C89.4048 108.136 87.0584 104.316 81.7777 99.9158C79.3302 97.8761 78.9995 94.2385 81.0391 91.791Z" fill="#E2E8F0"/>
<path d="M54.5054 114.581C54.5054 91.5054 54.5054 91.5054 74 91.5054C81.2275 91.5054 93.4946 96.8701 93.4946 114.581C93.4946 132.882 93.4946 132.882 74 132.882C54.5054 132.882 54.5054 132.882 54.5054 114.581Z" fill="white"/>
<path fill-rule="evenodd" clip-rule="evenodd" d="M54.5053 101.849C54.9447 101.849 55.301 102.206 55.3011 102.645C55.3014 105.409 55.3013 110.19 55.3012 114.252C55.3011 116.036 55.3011 117.682 55.3011 118.957C55.3011 122.465 55.3034 125.002 55.5962 126.885C55.8846 128.739 56.4323 129.799 57.4047 130.494C58.4334 131.228 60.0687 131.655 62.7926 131.871C65.495 132.085 69.1124 132.086 74 132.086C78.8876 132.086 82.505 132.085 85.2074 131.871C87.9313 131.655 89.5666 131.228 90.5953 130.494C91.5676 129.799 92.1154 128.739 92.4038 126.885C92.6966 125.002 92.6989 122.465 92.6989 118.957C92.6989 114.822 92.0195 108.145 90.9125 104.466C90.7859 104.045 91.0243 103.601 91.4451 103.475C91.866 103.348 92.3098 103.586 92.4364 104.007C93.6049 107.89 94.2903 114.738 94.2903 118.957V119.031C94.2903 122.449 94.2903 125.11 93.9763 127.13C93.6554 129.192 92.9848 130.743 91.5203 131.789C90.1122 132.794 88.0922 133.238 85.3333 133.457C82.5604 133.677 78.8799 133.677 74.0399 133.677H73.9601C69.1201 133.677 65.4396 133.677 62.6667 133.457C59.9078 133.238 57.8878 132.794 56.4797 131.789C55.0152 130.743 54.3446 129.192 54.0237 127.13C53.7096 125.11 53.7097 122.449 53.7097 119.031L53.7097 118.957C53.7097 117.682 53.7097 116.036 53.7098 114.252C53.7099 110.19 53.71 105.409 53.7097 102.645C53.7096 102.206 54.0658 101.85 54.5053 101.849Z" fill="#E2E8F0"/>
<path fill-rule="evenodd" clip-rule="evenodd" d="M75.9892 138.054V118.957H93.4946V138.054C93.4946 142.888 89.5759 146.806 84.7419 146.806C79.908 146.806 75.9892 142.888 75.9892 138.054Z" fill="white"/>
<path fill-rule="evenodd" clip-rule="evenodd" d="M94.2903 118.957V138.054C94.2903 143.327 90.0154 147.602 84.7419 147.602C79.4685 147.602 75.1935 143.327 75.1935 138.054V132.882C75.1935 132.442 75.5498 132.086 75.9892 132.086C76.4287 132.086 76.7849 132.442 76.7849 132.882V138.054C76.7849 142.448 80.3474 146.011 84.7419 146.011C89.1365 146.011 92.6989 142.448 92.6989 138.054V118.957H94.2903Z" fill="#E2E8F0"/>
<path fill-rule="evenodd" clip-rule="evenodd" d="M72.0107 138.054V118.957H63.2581H54.5054V138.054C54.5054 142.888 58.4241 146.806 63.2581 146.806C68.092 146.806 72.0107 142.888 72.0107 138.054Z" fill="white"/>
<path fill-rule="evenodd" clip-rule="evenodd" d="M53.7097 118.957V138.054C53.7097 143.327 57.9846 147.602 63.2581 147.602C68.5315 147.602 72.8064 143.327 72.8064 138.054V132.882C72.8064 132.442 72.4502 132.086 72.0107 132.086C71.5713 132.086 71.215 132.442 71.215 132.882V138.054C71.215 142.448 67.6526 146.011 63.2581 146.011C58.8635 146.011 55.3011 142.448 55.3011 138.054V118.957H53.7097Z" fill="#E2E8F0"/>
<path d="M73.2043 97.871H74.7957L77.8782 111.549C77.9403 111.825 77.8515 112.113 77.6448 112.306L74.5429 115.201C74.2372 115.486 73.7628 115.486 73.4571 115.201L70.3551 112.306C70.1485 112.113 70.0597 111.825 70.1218 111.549L73.2043 97.871Z" fill="#8BAEF3"/>
<path d="M70.4193 95.1656C72.384 93.1572 75.616 93.1572 77.5806 95.1656L74 100.656L70.4193 95.1656Z" fill="#8BAEF3"/>
<path d="M72.2526 26.9231C71.8869 24.7506 69.9506 23.1681 67.7609 23.4097C43.4877 26.0878 32.6237 44.348 32.6237 59.6956C32.6237 79.5561 47.519 94.6883 74 94.6883C100.481 94.6883 115.376 79.5561 115.376 59.6956C115.376 44.348 104.512 26.0878 80.2391 23.4097C78.0494 23.1681 76.1131 24.7506 75.7474 26.9231L75.5914 27.8496H72.4086L72.2526 26.9231Z" fill="white"/>
<path fill-rule="evenodd" clip-rule="evenodd" d="M74.9627 26.7909C75.3927 24.2362 77.684 22.3271 80.3264 22.6187C105.044 25.3459 116.172 43.9854 116.172 59.6955C116.172 69.8343 112.365 78.8052 105.148 85.2337C97.9374 91.6565 87.3902 95.4839 74 95.4839C60.6099 95.4839 50.0626 91.6565 42.8522 85.2337C35.6354 78.8052 31.828 69.8343 31.828 59.6955C31.828 43.9854 42.9557 25.3459 67.6736 22.6187C70.316 22.3271 72.6073 24.2362 73.0373 26.7909L73.0816 27.0538H74.9184L74.9627 26.7909ZM80.1518 24.2005C78.4147 24.0088 76.8334 25.2647 76.532 27.055L76.3761 27.9816C76.3116 28.3646 75.9799 28.6452 75.5914 28.6452H72.4086C72.0201 28.6452 71.6884 28.3646 71.6239 27.9816L71.468 27.055C71.1666 25.2647 69.5853 24.0088 67.8481 24.2005C44.0197 26.8295 33.4194 44.7104 33.4194 59.6955C33.4194 69.4172 37.0596 77.9426 43.9107 84.0454C50.7682 90.1538 60.9091 93.8925 74 93.8925C87.0909 93.8925 97.2318 90.1538 104.089 84.0454C110.94 77.9426 114.581 69.4172 114.581 59.6955C114.581 44.7104 103.98 26.8295 80.1518 24.2005Z" fill="#E2E8F0"/>
<path d="M104.634 65.5315C104.634 72.857 101.995 79.0526 97.133 83.4885C92.2154 87.9756 84.5693 91.0601 74 91.0601C63.4307 91.0601 55.7846 87.9756 50.867 83.4885C46.0054 79.0526 43.3656 72.857 43.3656 65.5315C43.3656 53.7412 52.1221 38.544 74 38.544C95.8779 38.544 104.634 53.7412 104.634 65.5315Z" fill="#DEE8FC"/>
<ellipse cx="74" cy="71.5655" rx="1.5914" ry="1.19355" fill="#8BAEF3"/>
<path fill-rule="evenodd" clip-rule="evenodd" d="M69.3682 77.4677C69.8439 77.1931 70.4522 77.3561 70.7269 77.8318C71.0586 78.4064 71.5357 78.8835 72.1103 79.2152C72.6848 79.5469 73.3366 79.7216 74.0001 79.7216C74.6635 79.7216 75.3153 79.5469 75.8898 79.2152C76.4644 78.8835 76.9415 78.4064 77.2733 77.8318C77.5479 77.3561 78.1562 77.1931 78.6319 77.4677C79.1077 77.7424 79.2707 78.3507 78.996 78.8264C78.4897 79.7034 77.7614 80.4316 76.8845 80.938C76.0075 81.4443 75.0127 81.7108 74.0001 81.7108C72.9874 81.7108 71.9926 81.4443 71.1157 80.938C70.2387 80.4316 69.5104 79.7034 69.0041 78.8264C68.7295 78.3507 68.8925 77.7424 69.3682 77.4677Z" fill="#2D3748"/>
<path fill-rule="evenodd" clip-rule="evenodd" d="M70.4968 45.973C70.936 45.9591 71.3033 46.3039 71.3172 46.7432L71.3231 46.9282C71.3541 47.9081 71.6772 48.8563 72.251 49.6512C72.5082 50.0075 72.4278 50.5049 72.0715 50.7621C71.7152 51.0193 71.2178 50.939 70.9606 50.5826C70.2012 49.5305 69.7735 48.2754 69.7325 46.9785L69.7266 46.7934C69.7127 46.3542 70.0576 45.9869 70.4968 45.973ZM74.919 46.1734C75.3314 46.0217 75.7887 46.2332 75.9404 46.6456L76.0841 47.0366C76.4472 48.0241 77.1234 48.8657 78.0096 49.4328C78.3797 49.6697 78.4877 50.1618 78.2508 50.5319C78.014 50.9021 77.5219 51.0101 77.1517 50.7732C75.9729 50.0188 75.0734 48.8993 74.5905 47.5857L74.4467 47.1948C74.2951 46.7823 74.5065 46.325 74.919 46.1734Z" fill="#2D3748"/>
<path fill-rule="evenodd" clip-rule="evenodd" d="M60.2742 63.457C60.2742 61.4795 61.8773 59.8763 63.8548 59.8763C65.8324 59.8763 67.4355 61.4795 67.4355 63.457V65.6452C67.4355 66.1945 66.9902 66.6398 66.4409 66.6398C65.8915 66.6398 65.4462 66.1945 65.4462 65.6452V63.457C65.4462 62.5781 64.7337 61.8656 63.8548 61.8656C62.9759 61.8656 62.2634 62.5781 62.2634 63.457V65.6452C62.2634 66.1945 61.8181 66.6398 61.2688 66.6398C60.7195 66.6398 60.2742 66.1945 60.2742 65.6452V63.457Z" fill="#2D3748"/>
<path fill-rule="evenodd" clip-rule="evenodd" d="M80.5645 63.457C80.5645 61.4795 82.1676 59.8763 84.1452 59.8763C86.1227 59.8763 87.7258 61.4795 87.7258 63.457V65.6452C87.7258 66.1945 87.2805 66.6398 86.7312 66.6398C86.1819 66.6398 85.7366 66.1945 85.7366 65.6452V63.457C85.7366 62.5781 85.0241 61.8656 84.1452 61.8656C83.2663 61.8656 82.5538 62.5781 82.5538 63.457V65.6452C82.5538 66.1945 82.1085 66.6398 81.5591 66.6398C81.0098 66.6398 80.5645 66.1945 80.5645 65.6452V63.457Z" fill="#2D3748"/>
<defs>
<clipPath id="clip0_4870_27217">
<rect width="28.6452" height="28.6452" fill="white" transform="translate(59.6774)"/>
</clipPath>
</defs>
</svg>
