<svg width="166" height="60" viewBox="0 0 166 60" fill="none" xmlns="http://www.w3.org/2000/svg">
<path d="M69.551 38.4579V51.6239H65.6545V41.5751H44.6545V38.4579H69.551ZM69.551 14.8329V36.4891H65.6545V27.3427H58.5178C57.7385 31.7313 53.9651 34.6844 49.0842 34.6434C43.5471 34.6844 39.4456 30.993 39.4456 25.743C39.4456 20.5751 43.5471 16.8427 49.0842 16.8837C53.9651 16.8427 57.718 19.8163 58.5178 24.1434H65.6545V14.8329H69.551ZM49.0842 20.1649C45.6799 20.1649 43.178 22.4618 43.178 25.743C43.178 29.1063 45.6799 31.3622 49.0842 31.3622C52.4065 31.3622 54.9084 29.1063 54.9084 25.743C54.9084 22.4618 52.4065 20.1649 49.0842 20.1649Z" fill="#2A69E9"/>
<path d="M31.9102 14.8329V51.5829H27.9727V14.8329H31.9102ZM20.959 18.7704C20.959 29.5165 16.3652 38.868 3.77344 44.8973L1.72266 41.7391C11.5049 37.0839 16.2627 30.4598 17.0215 21.8876H3.48633V18.7704H20.959Z" fill="#2A69E9"/>
<path d="M130.01 15.4323C130.01 14.4973 130.327 13.8127 130.961 13.3785C131.629 12.9444 132.381 12.7273 133.216 12.7273C134.05 12.7273 134.785 12.9444 135.42 13.3785C136.088 13.8127 136.422 14.4973 136.422 15.4323V19.3897C136.422 20.8925 136.589 22.2116 136.922 23.347C137.256 24.449 137.858 25.4676 138.726 26.4027C139.527 27.2709 140.312 28.0891 141.08 28.8572C141.882 29.5919 142.666 30.3099 143.435 31.0112C144.002 31.5121 144.269 32.1633 144.236 32.9648C144.236 33.7329 143.986 34.4008 143.485 34.9685C143.017 35.5362 142.399 35.8702 141.631 35.9704C140.863 36.0372 140.145 35.7867 139.477 35.219C138.909 34.7515 138.342 34.2505 137.774 33.7162C137.24 33.1819 136.672 32.6142 136.071 32.0131C135.203 31.1448 134.535 30.3934 134.067 29.7589C133.633 29.1244 133.366 28.5733 133.266 28.1058H133.216C133.115 28.6735 132.882 29.2746 132.514 29.9092C132.147 30.5103 131.429 31.3451 130.36 32.4138C129.626 33.1485 128.924 33.8164 128.256 34.4175C127.622 35.0186 126.921 35.6698 126.153 36.3711C125.585 36.8721 124.917 37.0724 124.149 36.9722C123.381 36.8387 122.746 36.488 122.245 35.9203C121.744 35.3192 121.461 34.6346 121.394 33.8665C121.36 33.0984 121.627 32.4472 122.195 31.9129C123.063 31.1448 123.982 30.2932 124.95 29.3581C125.952 28.3897 126.871 27.4713 127.705 26.603C128.574 25.668 129.175 24.6494 129.509 23.5474C129.843 22.4119 130.01 21.0928 130.01 19.59V15.4323ZM151.6 21.744H155.607V13.3785C155.607 12.5103 155.908 11.8758 156.509 11.475C157.11 11.0743 157.794 10.8739 158.563 10.8739C159.331 10.8739 160.015 11.0743 160.616 11.475C161.217 11.8758 161.518 12.5103 161.518 13.3785V36.5214C161.518 37.3897 161.217 38.0242 160.616 38.4249C160.015 38.8257 159.331 39.026 158.563 39.026C157.794 39.026 157.11 38.8257 156.509 38.4249C155.908 38.0242 155.607 37.3897 155.607 36.5214V27.104H151.6V34.4175C151.6 35.2858 151.299 35.9203 150.698 36.321C150.097 36.7218 149.412 36.9221 148.644 36.9221C147.909 36.9221 147.242 36.7218 146.64 36.321C146.039 35.9203 145.739 35.2858 145.739 34.4175V13.629C145.739 12.7607 146.039 12.1262 146.64 11.7255C147.242 11.3247 147.909 11.1244 148.644 11.1244C149.412 11.1244 150.097 11.3247 150.698 11.7255C151.299 12.1262 151.6 12.7607 151.6 13.629V21.744ZM130.16 48.4936C130.16 46.8572 130.511 45.4379 131.212 44.2357C131.947 43.0001 132.982 41.9815 134.318 41.18C135.687 40.3785 137.323 39.7774 139.227 39.3767C141.164 38.9759 143.351 38.7756 145.789 38.7756C148.227 38.7756 150.397 38.9759 152.301 39.3767C154.238 39.7774 155.874 40.3952 157.21 41.2301C158.579 42.0316 159.615 43.0502 160.316 44.2858C161.05 45.488 161.418 46.8906 161.418 48.4936C161.418 50.1299 161.05 51.5492 160.316 52.7515C159.615 53.9871 158.579 55.0056 157.21 55.8071C155.874 56.6086 154.238 57.2097 152.301 57.6105C150.397 58.0112 148.227 58.2116 145.789 58.2116C143.351 58.2116 141.164 58.0112 139.227 57.6105C137.323 57.2097 135.687 56.6086 134.318 55.8071C132.982 55.0056 131.947 53.9871 131.212 52.7515C130.511 51.5492 130.16 50.1299 130.16 48.4936ZM155.056 48.4936C155.056 47.1244 154.338 46.0223 152.902 45.1875C151.466 44.3192 149.095 43.885 145.789 43.885C142.483 43.885 140.112 44.3192 138.676 45.1875C137.24 46.0223 136.522 47.1244 136.522 48.4936C136.522 49.8628 137.24 50.9648 138.676 51.7997C140.112 52.668 142.483 53.1021 145.789 53.1021C149.095 53.1021 151.466 52.668 152.902 51.7997C154.338 50.9648 155.056 49.8628 155.056 48.4936Z" fill="#2A69E9"/>
<path d="M84.9184 15.4323C84.9184 14.4973 85.2356 13.8127 85.8701 13.3785C86.538 12.9444 87.2894 12.7273 88.1243 12.7273C88.9592 12.7273 89.6939 12.9444 90.3284 13.3785C90.9963 13.8127 91.3302 14.4973 91.3302 15.4323V19.3897C91.3302 20.8925 91.4972 22.2116 91.8312 23.347C92.1651 24.449 92.7662 25.4676 93.6345 26.4027C94.436 27.2709 95.2208 28.0891 95.9889 28.8572C96.7903 29.5919 97.5751 30.3099 98.3432 31.0112C98.9109 31.5121 99.1781 32.1633 99.1447 32.9648C99.1447 33.7329 98.8942 34.4008 98.3933 34.9685C97.9258 35.5362 97.308 35.8702 96.5399 35.9704C95.7718 36.0372 95.0538 35.7867 94.3859 35.219C93.8182 34.7515 93.2505 34.2505 92.6827 33.7162C92.1484 33.1819 91.5807 32.6142 90.9796 32.0131C90.1113 31.1448 89.4434 30.3934 88.9759 29.7589C88.5417 29.1244 88.2746 28.5733 88.1744 28.1058H88.1243C88.0241 28.6735 87.7903 29.2746 87.423 29.9092C87.0557 30.5103 86.3377 31.3451 85.269 32.4138C84.5343 33.1485 83.833 33.8164 83.1651 34.4175C82.5306 35.0186 81.8293 35.6698 81.0612 36.3711C80.4935 36.8721 79.8256 37.0724 79.0575 36.9722C78.2894 36.8387 77.6549 36.488 77.154 35.9203C76.6531 35.3192 76.3692 34.6346 76.3024 33.8665C76.269 33.0984 76.5362 32.4472 77.1039 31.9129C77.9722 31.1448 78.8905 30.2932 79.859 29.3581C80.8608 28.3897 81.7792 27.4713 82.6141 26.603C83.4824 25.668 84.0835 24.6494 84.4174 23.5474C84.7514 22.4119 84.9184 21.0928 84.9184 19.59V15.4323ZM106.508 21.744H110.516V13.3785C110.516 12.5103 110.816 11.8758 111.417 11.475C112.019 11.0743 112.703 10.8739 113.471 10.8739C114.239 10.8739 114.924 11.0743 115.525 11.475C116.126 11.8758 116.427 12.5103 116.427 13.3785V36.5214C116.427 37.3897 116.126 38.0242 115.525 38.4249C114.924 38.8257 114.239 39.026 113.471 39.026C112.703 39.026 112.019 38.8257 111.417 38.4249C110.816 38.0242 110.516 37.3897 110.516 36.5214V27.104H106.508V34.4175C106.508 35.2858 106.208 35.9203 105.607 36.321C105.006 36.7218 104.321 36.9221 103.553 36.9221C102.818 36.9221 102.15 36.7218 101.549 36.321C100.948 35.9203 100.647 35.2858 100.647 34.4175V13.629C100.647 12.7607 100.948 12.1262 101.549 11.7255C102.15 11.3247 102.818 11.1244 103.553 11.1244C104.321 11.1244 105.006 11.3247 105.607 11.7255C106.208 12.1262 106.508 12.7607 106.508 13.629V21.744ZM85.0686 48.4936C85.0686 46.8572 85.4193 45.4379 86.1206 44.2357C86.8553 43.0001 87.8905 41.9815 89.2263 41.18C90.5955 40.3785 92.2319 39.7774 94.1354 39.3767C96.0724 38.9759 98.2597 38.7756 100.698 38.7756C103.135 38.7756 105.306 38.9759 107.21 39.3767C109.147 39.7774 110.783 40.3952 112.119 41.2301C113.488 42.0316 114.523 43.0502 115.224 44.2858C115.959 45.488 116.327 46.8906 116.327 48.4936C116.327 50.1299 115.959 51.5492 115.224 52.7515C114.523 53.9871 113.488 55.0056 112.119 55.8071C110.783 56.6086 109.147 57.2097 107.21 57.6105C105.306 58.0112 103.135 58.2116 100.698 58.2116C98.2597 58.2116 96.0724 58.0112 94.1354 57.6105C92.2319 57.2097 90.5955 56.6086 89.2263 55.8071C87.8905 55.0056 86.8553 53.9871 86.1206 52.7515C85.4193 51.5492 85.0686 50.1299 85.0686 48.4936ZM109.965 48.4936C109.965 47.1244 109.247 46.0223 107.811 45.1875C106.375 44.3192 104.004 43.885 100.698 43.885C97.3915 43.885 95.0204 44.3192 93.5844 45.1875C92.1484 46.0223 91.4304 47.1244 91.4304 48.4936C91.4304 49.8628 92.1484 50.9648 93.5844 51.7997C95.0204 52.668 97.3915 53.1021 100.698 53.1021C104.004 53.1021 106.375 52.668 107.811 51.7997C109.247 50.9648 109.965 49.8628 109.965 48.4936Z" fill="#2A69E9"/>
<path d="M103.488 0C103.695 9.17228e-06 103.869 0.150493 103.901 0.354666C103.941 0.619593 103.963 0.890852 103.963 1.16699C103.963 4.13798 101.554 6.54688 98.583 6.54688C95.6121 6.54668 93.2033 4.13786 93.2031 1.16699C93.2031 0.891634 93.2242 0.620956 93.2643 0.356638C93.2955 0.151265 93.471 0 93.6787 0C95.8618 0 97.7396 1.30148 98.583 3.16992C99.4263 1.30133 101.305 0 103.488 0Z" fill="#2A69E9"/>
<path d="M148.058 0C148.265 9.17228e-06 148.439 0.150493 148.471 0.354666C148.511 0.619593 148.533 0.890852 148.533 1.16699C148.533 4.13798 146.124 6.54688 143.153 6.54688C140.182 6.54668 137.773 4.13786 137.773 1.16699C137.773 0.891634 137.794 0.620956 137.834 0.356638C137.866 0.151265 138.041 0 138.249 0C140.432 0 142.31 1.30148 143.153 3.16992C143.996 1.30133 145.875 0 148.058 0Z" fill="#2A69E9"/>
</svg>
